<mxfile host="app.diagrams.net" modified="2024-02-26T10:00:51.885Z" agent="Mozilla/5.0 (Windows NT 10.0; Win64; x64; rv:123.0) Gecko/20100101 Firefox/123.0" etag="YYWNcBSefNXMOAwEZmHS" version="23.1.6" type="github">
  <diagram name="Pagina-1" id="PJHqQeVscJE3fAsvbVZz">
    <mxGraphModel dx="2700" dy="526" grid="1" gridSize="10" guides="1" tooltips="1" connect="1" arrows="1" fold="1" page="1" pageScale="1" pageWidth="827" pageHeight="1169" background="#FFFFFF" math="0" shadow="0">
      <root>
        <mxCell id="0" />
        <mxCell id="1" parent="0" />
        <mxCell id="_0UyvHpJM2_UYdEt7BVN-13" style="edgeStyle=orthogonalEdgeStyle;rounded=0;orthogonalLoop=1;jettySize=auto;html=1;exitX=0.5;exitY=1;exitDx=0;exitDy=0;" parent="1" source="_0UyvHpJM2_UYdEt7BVN-11" target="_0UyvHpJM2_UYdEt7BVN-11" edge="1">
          <mxGeometry relative="1" as="geometry" />
        </mxCell>
        <mxCell id="PVbMBeRZzMBnVaOnaRQ2-4" value="" style="sketch=0;outlineConnect=0;fontColor=#232F3E;gradientColor=none;fillColor=#232F3D;strokeColor=none;dashed=0;verticalLabelPosition=bottom;verticalAlign=top;align=center;html=1;fontSize=12;fontStyle=0;aspect=fixed;pointerEvents=1;shape=mxgraph.aws4.internet_alt2;" parent="1" vertex="1">
          <mxGeometry x="-888" y="360" width="70" height="70" as="geometry" />
        </mxCell>
        <mxCell id="_0UyvHpJM2_UYdEt7BVN-11" value="Region" style="points=[[0,0],[0.25,0],[0.5,0],[0.75,0],[1,0],[1,0.25],[1,0.5],[1,0.75],[1,1],[0.75,1],[0.5,1],[0.25,1],[0,1],[0,0.75],[0,0.5],[0,0.25]];outlineConnect=0;gradientColor=none;html=1;whiteSpace=wrap;fontSize=12;fontStyle=0;container=1;pointerEvents=0;collapsible=0;recursiveResize=0;shape=mxgraph.aws4.group;grIcon=mxgraph.aws4.group_region;strokeColor=#00A4A6;fillColor=none;verticalAlign=top;align=left;spacingLeft=30;fontColor=#147EBA;movable=1;resizable=1;rotatable=1;deletable=1;editable=1;locked=0;connectable=1;" parent="1" vertex="1">
          <mxGeometry x="-1270" y="440" width="860" height="1400" as="geometry" />
        </mxCell>
        <mxCell id="8tDBMUT1Fk7rWq1yRiBQ-10" style="edgeStyle=orthogonalEdgeStyle;rounded=0;orthogonalLoop=1;jettySize=auto;html=1;" parent="_0UyvHpJM2_UYdEt7BVN-11" source="_0UyvHpJM2_UYdEt7BVN-28" target="MCkn7lFv3WwuSQ2sEobR-3" edge="1">
          <mxGeometry relative="1" as="geometry">
            <mxPoint x="450" y="466" as="sourcePoint" />
            <mxPoint x="386.5" y="190" as="targetPoint" />
            <Array as="points">
              <mxPoint x="335" y="864" />
              <mxPoint x="335" y="520" />
            </Array>
          </mxGeometry>
        </mxCell>
        <mxCell id="_0UyvHpJM2_UYdEt7BVN-28" value="" style="outlineConnect=0;dashed=0;verticalLabelPosition=bottom;verticalAlign=top;align=center;html=1;shape=mxgraph.aws3.vpc_peering;fillColor=#F58536;gradientColor=none;" parent="_0UyvHpJM2_UYdEt7BVN-11" vertex="1">
          <mxGeometry x="390" y="850" width="69" height="72" as="geometry" />
        </mxCell>
        <mxCell id="tvfA4WCq-9B7zUjuSEb1-6" style="edgeStyle=orthogonalEdgeStyle;rounded=0;orthogonalLoop=1;jettySize=auto;html=1;" parent="_0UyvHpJM2_UYdEt7BVN-11" source="PVbMBeRZzMBnVaOnaRQ2-1" target="MCkn7lFv3WwuSQ2sEobR-3" edge="1">
          <mxGeometry relative="1" as="geometry">
            <Array as="points">
              <mxPoint x="435" y="310" />
              <mxPoint x="391" y="310" />
            </Array>
          </mxGeometry>
        </mxCell>
        <mxCell id="PVbMBeRZzMBnVaOnaRQ2-1" value="Internet&#xa;gateway" style="sketch=0;outlineConnect=0;fontColor=#232F3E;gradientColor=none;strokeColor=#232F3E;fillColor=#ffffff;dashed=0;verticalLabelPosition=bottom;verticalAlign=top;align=center;html=1;fontSize=12;fontStyle=0;aspect=fixed;shape=mxgraph.aws4.resourceIcon;resIcon=mxgraph.aws4.internet_gateway;" parent="_0UyvHpJM2_UYdEt7BVN-11" vertex="1">
          <mxGeometry x="410" y="77" width="50" height="50" as="geometry" />
        </mxCell>
        <mxCell id="_0UyvHpJM2_UYdEt7BVN-29" value="vpc peering" style="rounded=1;whiteSpace=wrap;html=1;" parent="_0UyvHpJM2_UYdEt7BVN-11" vertex="1">
          <mxGeometry x="390" y="922" width="70" height="20" as="geometry" />
        </mxCell>
        <mxCell id="MCkn7lFv3WwuSQ2sEobR-3" value="Public RT" style="sketch=0;outlineConnect=0;fontColor=#232F3E;gradientColor=none;strokeColor=#232F3E;fillColor=#ffffff;dashed=0;verticalLabelPosition=bottom;verticalAlign=top;align=center;html=1;fontSize=12;fontStyle=0;aspect=fixed;shape=mxgraph.aws4.resourceIcon;resIcon=mxgraph.aws4.route_table;" parent="_0UyvHpJM2_UYdEt7BVN-11" vertex="1">
          <mxGeometry x="360.5" y="500" width="50" height="50" as="geometry" />
        </mxCell>
        <mxCell id="Sj0KoQw-8R_YdXfJVcrg-53" value="Public subnet" style="points=[[0,0],[0.25,0],[0.5,0],[0.75,0],[1,0],[1,0.25],[1,0.5],[1,0.75],[1,1],[0.75,1],[0.5,1],[0.25,1],[0,1],[0,0.75],[0,0.5],[0,0.25]];outlineConnect=0;gradientColor=none;html=1;whiteSpace=wrap;fontSize=12;fontStyle=0;container=1;pointerEvents=0;collapsible=0;recursiveResize=0;shape=mxgraph.aws4.group;grIcon=mxgraph.aws4.group_security_group;grStroke=0;strokeColor=#7AA116;fillColor=#F2F6E8;verticalAlign=top;align=left;spacingLeft=30;fontColor=#248814;dashed=0;" parent="_0UyvHpJM2_UYdEt7BVN-11" vertex="1">
          <mxGeometry x="140" y="150" width="215" height="270" as="geometry" />
        </mxCell>
        <mxCell id="Sj0KoQw-8R_YdXfJVcrg-14" value="web server" style="rounded=1;whiteSpace=wrap;html=1;" parent="Sj0KoQw-8R_YdXfJVcrg-53" vertex="1">
          <mxGeometry x="37" y="125" width="80" height="20" as="geometry" />
        </mxCell>
        <mxCell id="Sj0KoQw-8R_YdXfJVcrg-42" value="" style="outlineConnect=0;dashed=0;verticalLabelPosition=bottom;verticalAlign=top;align=center;html=1;shape=mxgraph.aws3.vpc_nat_gateway;fillColor=#F58536;gradientColor=none;" parent="_0UyvHpJM2_UYdEt7BVN-11" vertex="1">
          <mxGeometry x="276.5" y="373" width="39" height="40" as="geometry" />
        </mxCell>
        <mxCell id="Sj0KoQw-8R_YdXfJVcrg-73" value="WebServerSG" style="fillColor=none;strokeColor=#DD3522;verticalAlign=top;fontStyle=0;fontColor=#DD3522;whiteSpace=wrap;html=1;" parent="_0UyvHpJM2_UYdEt7BVN-11" vertex="1">
          <mxGeometry x="150" y="195" width="119" height="140" as="geometry" />
        </mxCell>
        <mxCell id="Dz7m19JUjk59nYBz_nPX-1" style="edgeStyle=orthogonalEdgeStyle;rounded=0;orthogonalLoop=1;jettySize=auto;html=1;" edge="1" parent="_0UyvHpJM2_UYdEt7BVN-11" source="Sj0KoQw-8R_YdXfJVcrg-65" target="MCkn7lFv3WwuSQ2sEobR-3">
          <mxGeometry relative="1" as="geometry">
            <Array as="points">
              <mxPoint x="400" y="248" />
            </Array>
          </mxGeometry>
        </mxCell>
        <mxCell id="Sj0KoQw-8R_YdXfJVcrg-65" value="" style="sketch=0;points=[[0,0,0],[0.25,0,0],[0.5,0,0],[0.75,0,0],[1,0,0],[0,1,0],[0.25,1,0],[0.5,1,0],[0.75,1,0],[1,1,0],[0,0.25,0],[0,0.5,0],[0,0.75,0],[1,0.25,0],[1,0.5,0],[1,0.75,0]];outlineConnect=0;fontColor=#232F3E;fillColor=#ED7100;strokeColor=#ffffff;dashed=0;verticalLabelPosition=bottom;verticalAlign=top;align=center;html=1;fontSize=12;fontStyle=0;aspect=fixed;shape=mxgraph.aws4.resourceIcon;resIcon=mxgraph.aws4.ec2;" parent="_0UyvHpJM2_UYdEt7BVN-11" vertex="1">
          <mxGeometry x="190" y="222.5" width="51.5" height="51.5" as="geometry" />
        </mxCell>
        <mxCell id="nFN0qH9Q3qQGWHZ8weUC-7" value="Private subnet" style="points=[[0,0],[0.25,0],[0.5,0],[0.75,0],[1,0],[1,0.25],[1,0.5],[1,0.75],[1,1],[0.75,1],[0.5,1],[0.25,1],[0,1],[0,0.75],[0,0.5],[0,0.25]];outlineConnect=0;gradientColor=none;html=1;whiteSpace=wrap;fontSize=12;fontStyle=0;container=1;pointerEvents=0;collapsible=0;recursiveResize=0;shape=mxgraph.aws4.group;grIcon=mxgraph.aws4.group_security_group;grStroke=0;strokeColor=#00A4A6;fillColor=#E6F6F7;verticalAlign=top;align=left;spacingLeft=30;fontColor=#147EBA;dashed=0;" parent="_0UyvHpJM2_UYdEt7BVN-11" vertex="1">
          <mxGeometry x="505" y="150" width="230" height="270" as="geometry" />
        </mxCell>
        <mxCell id="Sj0KoQw-8R_YdXfJVcrg-7" value="" style="image;html=1;image=img/lib/clip_art/computers/Workstation_128x128.png" parent="nFN0qH9Q3qQGWHZ8weUC-7" vertex="1">
          <mxGeometry x="143.5" y="95" width="40" height="30" as="geometry" />
        </mxCell>
        <mxCell id="Sj0KoQw-8R_YdXfJVcrg-6" value="" style="image;html=1;image=img/lib/clip_art/computers/Workstation_128x128.png" parent="nFN0qH9Q3qQGWHZ8weUC-7" vertex="1">
          <mxGeometry x="117.5" y="125" width="42" height="30" as="geometry" />
        </mxCell>
        <mxCell id="Sj0KoQw-8R_YdXfJVcrg-17" value="workstations" style="rounded=1;whiteSpace=wrap;html=1;" parent="nFN0qH9Q3qQGWHZ8weUC-7" vertex="1">
          <mxGeometry x="103.5" y="160" width="70" height="20" as="geometry" />
        </mxCell>
        <mxCell id="_0UyvHpJM2_UYdEt7BVN-24" style="edgeStyle=orthogonalEdgeStyle;rounded=0;orthogonalLoop=1;jettySize=auto;html=1;exitX=0.5;exitY=1;exitDx=0;exitDy=0;" parent="nFN0qH9Q3qQGWHZ8weUC-7" source="Sj0KoQw-8R_YdXfJVcrg-17" target="Sj0KoQw-8R_YdXfJVcrg-17" edge="1">
          <mxGeometry relative="1" as="geometry" />
        </mxCell>
        <mxCell id="Sj0KoQw-8R_YdXfJVcrg-8" value="" style="image;html=1;image=img/lib/clip_art/computers/Workstation_128x128.png" parent="_0UyvHpJM2_UYdEt7BVN-11" vertex="1">
          <mxGeometry x="615" y="244" width="30" height="30" as="geometry" />
        </mxCell>
        <mxCell id="VpXMpqJgnysS3OqA2jy1-3" value="Private RT" style="sketch=0;outlineConnect=0;fontColor=#232F3E;gradientColor=none;strokeColor=#232F3E;fillColor=#ffffff;dashed=0;verticalLabelPosition=bottom;verticalAlign=top;align=center;html=1;fontSize=12;fontStyle=0;aspect=fixed;shape=mxgraph.aws4.resourceIcon;resIcon=mxgraph.aws4.route_table;" parent="_0UyvHpJM2_UYdEt7BVN-11" vertex="1">
          <mxGeometry x="430.5" y="500" width="50" height="50" as="geometry" />
        </mxCell>
        <mxCell id="PVbMBeRZzMBnVaOnaRQ2-7" style="edgeStyle=orthogonalEdgeStyle;rounded=0;orthogonalLoop=1;jettySize=auto;html=1;" parent="_0UyvHpJM2_UYdEt7BVN-11" source="Sj0KoQw-8R_YdXfJVcrg-6" target="VpXMpqJgnysS3OqA2jy1-3" edge="1">
          <mxGeometry relative="1" as="geometry" />
        </mxCell>
        <mxCell id="MCkn7lFv3WwuSQ2sEobR-1" value="" style="outlineConnect=0;dashed=0;verticalLabelPosition=bottom;verticalAlign=top;align=center;html=1;shape=mxgraph.aws3.elastic_ip;fillColor=#F58534;gradientColor=none;" parent="_0UyvHpJM2_UYdEt7BVN-11" vertex="1">
          <mxGeometry x="230" y="385" width="46.5" height="16" as="geometry" />
        </mxCell>
        <mxCell id="Sj0KoQw-8R_YdXfJVcrg-54" value="Public subnet" style="points=[[0,0],[0.25,0],[0.5,0],[0.75,0],[1,0],[1,0.25],[1,0.5],[1,0.75],[1,1],[0.75,1],[0.5,1],[0.25,1],[0,1],[0,0.75],[0,0.5],[0,0.25]];outlineConnect=0;gradientColor=none;html=1;whiteSpace=wrap;fontSize=12;fontStyle=0;container=1;pointerEvents=0;collapsible=0;recursiveResize=0;shape=mxgraph.aws4.group;grIcon=mxgraph.aws4.group_security_group;grStroke=0;strokeColor=#7AA116;fillColor=#F2F6E8;verticalAlign=top;align=left;spacingLeft=30;fontColor=#248814;dashed=0;" parent="_0UyvHpJM2_UYdEt7BVN-11" vertex="1">
          <mxGeometry x="150" y="1042.5" width="189.5" height="210" as="geometry" />
        </mxCell>
        <mxCell id="Sj0KoQw-8R_YdXfJVcrg-72" value="AdminServerSG" style="fillColor=none;strokeColor=#DD3522;verticalAlign=top;fontStyle=0;fontColor=#DD3522;whiteSpace=wrap;html=1;" parent="Sj0KoQw-8R_YdXfJVcrg-54" vertex="1">
          <mxGeometry x="22" y="63.5" width="90" height="126.5" as="geometry" />
        </mxCell>
        <mxCell id="Sj0KoQw-8R_YdXfJVcrg-69" value="" style="sketch=0;points=[[0,0,0],[0.25,0,0],[0.5,0,0],[0.75,0,0],[1,0,0],[0,1,0],[0.25,1,0],[0.5,1,0],[0.75,1,0],[1,1,0],[0,0.25,0],[0,0.5,0],[0,0.75,0],[1,0.25,0],[1,0.5,0],[1,0.75,0]];outlineConnect=0;fontColor=#232F3E;fillColor=#ED7100;strokeColor=#ffffff;dashed=0;verticalLabelPosition=bottom;verticalAlign=top;align=center;html=1;fontSize=12;fontStyle=0;aspect=fixed;shape=mxgraph.aws4.resourceIcon;resIcon=mxgraph.aws4.ec2;" parent="Sj0KoQw-8R_YdXfJVcrg-54" vertex="1">
          <mxGeometry x="34" y="89" width="70" height="70" as="geometry" />
        </mxCell>
        <mxCell id="Sj0KoQw-8R_YdXfJVcrg-16" value="admin server" style="rounded=1;whiteSpace=wrap;html=1;" parent="Sj0KoQw-8R_YdXfJVcrg-54" vertex="1">
          <mxGeometry x="32" y="159" width="74" height="20" as="geometry" />
        </mxCell>
        <mxCell id="gCW_S49EfX_7v66CaVBs-4" style="edgeStyle=orthogonalEdgeStyle;rounded=0;orthogonalLoop=1;jettySize=auto;html=1;entryX=1.017;entryY=0.119;entryDx=0;entryDy=0;entryPerimeter=0;" parent="_0UyvHpJM2_UYdEt7BVN-11" source="8tDBMUT1Fk7rWq1yRiBQ-18" target="Sj0KoQw-8R_YdXfJVcrg-72" edge="1">
          <mxGeometry relative="1" as="geometry">
            <Array as="points">
              <mxPoint x="391" y="1150" />
              <mxPoint x="272" y="1150" />
              <mxPoint x="272" y="1121" />
            </Array>
            <mxPoint x="335" y="742" as="sourcePoint" />
          </mxGeometry>
        </mxCell>
        <mxCell id="Dz7m19JUjk59nYBz_nPX-3" style="edgeStyle=orthogonalEdgeStyle;rounded=0;orthogonalLoop=1;jettySize=auto;html=1;" edge="1" parent="_0UyvHpJM2_UYdEt7BVN-11" source="8tDBMUT1Fk7rWq1yRiBQ-18" target="_0UyvHpJM2_UYdEt7BVN-11">
          <mxGeometry relative="1" as="geometry">
            <Array as="points">
              <mxPoint x="420" y="1220" />
              <mxPoint x="420" y="1220" />
            </Array>
          </mxGeometry>
        </mxCell>
        <mxCell id="8tDBMUT1Fk7rWq1yRiBQ-18" value="Internet&#xa;gateway" style="sketch=0;outlineConnect=0;fontColor=#232F3E;gradientColor=none;strokeColor=#232F3E;fillColor=#ffffff;dashed=0;verticalLabelPosition=bottom;verticalAlign=top;align=center;html=1;fontSize=12;fontStyle=0;aspect=fixed;shape=mxgraph.aws4.resourceIcon;resIcon=mxgraph.aws4.internet_gateway;" parent="_0UyvHpJM2_UYdEt7BVN-11" vertex="1">
          <mxGeometry x="389" y="1210" width="52" height="52" as="geometry" />
        </mxCell>
        <mxCell id="Sj0KoQw-8R_YdXfJVcrg-52" value="Private subnet" style="points=[[0,0],[0.25,0],[0.5,0],[0.75,0],[1,0],[1,0.25],[1,0.5],[1,0.75],[1,1],[0.75,1],[0.5,1],[0.25,1],[0,1],[0,0.75],[0,0.5],[0,0.25]];outlineConnect=0;gradientColor=none;html=1;whiteSpace=wrap;fontSize=12;fontStyle=0;container=1;pointerEvents=0;collapsible=0;recursiveResize=0;shape=mxgraph.aws4.group;grIcon=mxgraph.aws4.group_security_group;grStroke=0;strokeColor=#00A4A6;fillColor=#E6F6F7;verticalAlign=top;align=left;spacingLeft=30;fontColor=#147EBA;dashed=0;" parent="_0UyvHpJM2_UYdEt7BVN-11" vertex="1">
          <mxGeometry x="490" y="1027.5" width="190" height="220" as="geometry" />
        </mxCell>
        <mxCell id="8tDBMUT1Fk7rWq1yRiBQ-22" value="privateRT2" style="sketch=0;outlineConnect=0;fontColor=#232F3E;gradientColor=none;strokeColor=#232F3E;fillColor=#ffffff;dashed=0;verticalLabelPosition=bottom;verticalAlign=top;align=center;html=1;fontSize=12;fontStyle=0;aspect=fixed;shape=mxgraph.aws4.resourceIcon;resIcon=mxgraph.aws4.route_table;" parent="Sj0KoQw-8R_YdXfJVcrg-52" vertex="1">
          <mxGeometry x="-20" y="129" width="55" height="55" as="geometry" />
        </mxCell>
        <mxCell id="_0UyvHpJM2_UYdEt7BVN-21" value="Availability Zone 1b" style="fillColor=none;strokeColor=#147EBA;dashed=1;verticalAlign=top;fontStyle=0;fontColor=#147EBA;whiteSpace=wrap;html=1;" parent="_0UyvHpJM2_UYdEt7BVN-11" vertex="1">
          <mxGeometry x="450" y="980" width="257" height="300" as="geometry" />
        </mxCell>
        <mxCell id="8tDBMUT1Fk7rWq1yRiBQ-23" value="publicRT" style="sketch=0;outlineConnect=0;fontColor=#232F3E;gradientColor=none;strokeColor=#232F3E;fillColor=#ffffff;dashed=0;verticalLabelPosition=bottom;verticalAlign=top;align=center;html=1;fontSize=12;fontStyle=0;aspect=fixed;shape=mxgraph.aws4.resourceIcon;resIcon=mxgraph.aws4.route_table;" parent="_0UyvHpJM2_UYdEt7BVN-11" vertex="1">
          <mxGeometry x="320" y="1046" width="60" height="60" as="geometry" />
        </mxCell>
        <mxCell id="8tDBMUT1Fk7rWq1yRiBQ-32" style="edgeStyle=orthogonalEdgeStyle;rounded=0;orthogonalLoop=1;jettySize=auto;html=1;" parent="_0UyvHpJM2_UYdEt7BVN-11" source="Sj0KoQw-8R_YdXfJVcrg-72" target="8tDBMUT1Fk7rWq1yRiBQ-23" edge="1">
          <mxGeometry relative="1" as="geometry" />
        </mxCell>
        <mxCell id="_0UyvHpJM2_UYdEt7BVN-15" value="vpc2" style="sketch=0;outlineConnect=0;gradientColor=none;html=1;whiteSpace=wrap;fontSize=12;fontStyle=0;shape=mxgraph.aws4.group;grIcon=mxgraph.aws4.group_vpc;strokeColor=#879196;fillColor=none;verticalAlign=top;align=left;spacingLeft=30;fontColor=#879196;dashed=0;movable=1;resizable=1;rotatable=1;deletable=1;editable=1;locked=0;connectable=1;" parent="_0UyvHpJM2_UYdEt7BVN-11" vertex="1">
          <mxGeometry x="115" y="1007" width="640" height="255" as="geometry" />
        </mxCell>
        <mxCell id="Y8i-JmWOrCgMs_T9cGUN-2" value="Availability Zone 1a" style="fillColor=none;strokeColor=#147EBA;dashed=1;verticalAlign=top;fontStyle=0;fontColor=#147EBA;whiteSpace=wrap;html=1;movable=1;resizable=1;rotatable=1;deletable=1;editable=1;locked=0;connectable=1;" parent="_0UyvHpJM2_UYdEt7BVN-11" vertex="1">
          <mxGeometry x="140" y="984.5" width="240" height="300" as="geometry" />
        </mxCell>
        <mxCell id="Dz7m19JUjk59nYBz_nPX-5" style="edgeStyle=orthogonalEdgeStyle;rounded=0;orthogonalLoop=1;jettySize=auto;html=1;entryX=0.933;entryY=0.467;entryDx=0;entryDy=0;entryPerimeter=0;" edge="1" parent="_0UyvHpJM2_UYdEt7BVN-11" source="_0UyvHpJM2_UYdEt7BVN-29" target="8tDBMUT1Fk7rWq1yRiBQ-23">
          <mxGeometry relative="1" as="geometry">
            <Array as="points">
              <mxPoint x="410" y="994" />
              <mxPoint x="376" y="994" />
            </Array>
          </mxGeometry>
        </mxCell>
        <mxCell id="Dz7m19JUjk59nYBz_nPX-7" value="Public subnet" style="points=[[0,0],[0.25,0],[0.5,0],[0.75,0],[1,0],[1,0.25],[1,0.5],[1,0.75],[1,1],[0.75,1],[0.5,1],[0.25,1],[0,1],[0,0.75],[0,0.5],[0,0.25]];outlineConnect=0;gradientColor=none;html=1;whiteSpace=wrap;fontSize=12;fontStyle=0;container=1;pointerEvents=0;collapsible=0;recursiveResize=0;shape=mxgraph.aws4.group;grIcon=mxgraph.aws4.group_security_group;grStroke=0;strokeColor=#7AA116;fillColor=#F2F6E8;verticalAlign=top;align=left;spacingLeft=30;fontColor=#248814;dashed=0;" vertex="1" parent="_0UyvHpJM2_UYdEt7BVN-11">
          <mxGeometry x="120" y="605" width="180" height="145" as="geometry" />
        </mxCell>
        <mxCell id="Dz7m19JUjk59nYBz_nPX-6" value="Private subnet" style="points=[[0,0],[0.25,0],[0.5,0],[0.75,0],[1,0],[1,0.25],[1,0.5],[1,0.75],[1,1],[0.75,1],[0.5,1],[0.25,1],[0,1],[0,0.75],[0,0.5],[0,0.25]];outlineConnect=0;gradientColor=none;html=1;whiteSpace=wrap;fontSize=12;fontStyle=0;container=1;pointerEvents=0;collapsible=0;recursiveResize=0;shape=mxgraph.aws4.group;grIcon=mxgraph.aws4.group_security_group;grStroke=0;strokeColor=#00A4A6;fillColor=#E6F6F7;verticalAlign=top;align=left;spacingLeft=30;fontColor=#147EBA;dashed=0;" vertex="1" parent="_0UyvHpJM2_UYdEt7BVN-11">
          <mxGeometry x="510" y="605" width="180" height="145" as="geometry" />
        </mxCell>
        <mxCell id="_0UyvHpJM2_UYdEt7BVN-19" value="Availability Zone 1b" style="fillColor=none;strokeColor=#147EBA;verticalAlign=top;fontStyle=0;fontColor=#147EBA;whiteSpace=wrap;html=1;dashed=1;" parent="_0UyvHpJM2_UYdEt7BVN-11" vertex="1">
          <mxGeometry x="475" y="77" width="310" height="410" as="geometry" />
        </mxCell>
        <mxCell id="Dz7m19JUjk59nYBz_nPX-10" style="edgeStyle=orthogonalEdgeStyle;rounded=0;orthogonalLoop=1;jettySize=auto;html=1;entryX=0.1;entryY=0.55;entryDx=0;entryDy=0;entryPerimeter=0;" edge="1" parent="_0UyvHpJM2_UYdEt7BVN-11" source="Sj0KoQw-8R_YdXfJVcrg-42" target="VpXMpqJgnysS3OqA2jy1-3">
          <mxGeometry relative="1" as="geometry" />
        </mxCell>
        <mxCell id="_0UyvHpJM2_UYdEt7BVN-17" value="Availability Zone 1a" style="fillColor=none;strokeColor=#147EBA;verticalAlign=top;fontStyle=0;fontColor=#147EBA;whiteSpace=wrap;html=1;dashed=1;movable=1;resizable=1;rotatable=1;deletable=1;editable=1;locked=0;connectable=1;" parent="_0UyvHpJM2_UYdEt7BVN-11" vertex="1">
          <mxGeometry x="70" y="77" width="310" height="410" as="geometry" />
        </mxCell>
        <mxCell id="_0UyvHpJM2_UYdEt7BVN-14" value="VPC1" style="sketch=0;outlineConnect=0;gradientColor=none;html=1;whiteSpace=wrap;fontSize=12;fontStyle=0;shape=mxgraph.aws4.group;grIcon=mxgraph.aws4.group_vpc;strokeColor=#879196;fillColor=none;verticalAlign=top;align=left;spacingLeft=30;fontColor=#879196;dashed=0;movable=1;resizable=1;rotatable=1;deletable=1;editable=1;locked=0;connectable=1;" parent="_0UyvHpJM2_UYdEt7BVN-11" vertex="1">
          <mxGeometry x="40" y="105" width="775" height="735" as="geometry" />
        </mxCell>
        <mxCell id="Dz7m19JUjk59nYBz_nPX-8" value="Availability Zone 1c" style="fillColor=none;strokeColor=#147EBA;dashed=1;verticalAlign=top;fontStyle=0;fontColor=#147EBA;whiteSpace=wrap;html=1;" vertex="1" parent="_0UyvHpJM2_UYdEt7BVN-11">
          <mxGeometry x="79.5" y="580" width="690" height="240" as="geometry" />
        </mxCell>
        <mxCell id="r2skP4YST0uJ2uLN2XHx-3" style="edgeStyle=orthogonalEdgeStyle;rounded=0;orthogonalLoop=1;jettySize=auto;html=1;" parent="1" source="PVbMBeRZzMBnVaOnaRQ2-1" target="PVbMBeRZzMBnVaOnaRQ2-4" edge="1">
          <mxGeometry relative="1" as="geometry" />
        </mxCell>
        <mxCell id="8tDBMUT1Fk7rWq1yRiBQ-33" value="" style="sketch=0;outlineConnect=0;fontColor=#232F3E;gradientColor=none;fillColor=#232F3D;strokeColor=none;dashed=0;verticalLabelPosition=bottom;verticalAlign=top;align=center;html=1;fontSize=12;fontStyle=0;aspect=fixed;pointerEvents=1;shape=mxgraph.aws4.internet_alt2;" parent="1" vertex="1">
          <mxGeometry x="-881" y="1830" width="70" height="70" as="geometry" />
        </mxCell>
      </root>
    </mxGraphModel>
  </diagram>
</mxfile>
